PathFileType	4	(X/Y/Z)	C:/Users/opensim2020/Desktop/walking_exp_matlab/subject02_walking05_straight_02.trc	
DataRate	CameraRate	NumFrames	NumMarkers	Units	OrigDataRate	OrigDataStartFrame	OrigNumFrames	
100.00	100.00	6	42	mm	100.00	1548	243	
Frame#	Time	LFHD			RFHD			LBHD			RBHD			C7			T10			CLAV			STRN			RBAK			LSHO			LUPA			LELB			LFRM			LWRA			LWRB			LFIN			RSHO			RUPA			RELB			RFRM			RWRA			RWRB			RFIN			LASI			RASI			LPSI			RPSI			LTHI			LKNE			LTIB			LANK			LHEE			LTOE			RTHI			RKNE			RTIB			RANK			RHEE			RTOE			*39			*40			*41			
		X1	Y1	Z1	X2	Y2	Z2	X3	Y3	Z3	X4	Y4	Z4	X5	Y5	Z5	X6	Y6	Z6	X7	Y7	Z7	X8	Y8	Z8	X9	Y9	Z9	X10	Y10	Z10	X11	Y11	Z11	X12	Y12	Z12	X13	Y13	Z13	X14	Y14	Z14	X15	Y15	Z15	X16	Y16	Z16	X17	Y17	Z17	X18	Y18	Z18	X19	Y19	Z19	X20	Y20	Z20	X21	Y21	Z21	X22	Y22	Z22	X23	Y23	Z23	X24	Y24	Z24	X25	Y25	Z25	X26	Y26	Z26	X27	Y27	Z27	X28	Y28	Z28	X29	Y29	Z29	X30	Y30	Z30	X31	Y31	Z31	X32	Y32	Z32	X33	Y33	Z33	X34	Y34	Z34	X35	Y35	Z35	X36	Y36	Z36	X37	Y37	Z37	X38	Y38	Z38	X39	Y39	Z39	X40	Y40	Z40	X41	Y41	Z41	X42	Y42	Z42	

183	1.820	1493.13293	-547.26892	1755.52136	1350.87756	-543.29559	1730.84302	1510.45618	-428.20862	1664.64136	1369.93469	-412.19250	1637.96082	1428.43140	-380.67294	1528.33704	1404.51672	-330.46365	1253.24365	1456.76782	-517.91937	1460.82458	1450.90186	-570.63098	1289.08862	1348.76294	-334.56793	1357.74988	1615.39075	-425.79706	1500.25684	1695.30933	-386.48312	1303.47986	1710.17273	-372.92126	1163.59790	1728.28162	-377.90475	1031.96851	1708.46301	-436.37473	904.66748	1735.54248	-386.55304	909.01343	1742.82520	-404.61804	844.67059	1255.20874	-485.24838	1501.14258	1158.32593	-474.70981	1313.64880	1138.34668	-496.12543	1168.38123	1120.76770	-536.84406	1055.60486	1141.06604	-596.39844	934.77905	1104.87109	-553.10590	927.08350	1104.00427	-597.79474	869.51086	1568.58972	-538.92249	996.79999	1317.37146	-579.40460	982.19897	1460.01062	-344.84891	1034.30078	1345.82971	-358.07889	1034.55286	1646.67310	-518.54041	691.17462	1633.87537	-545.29034	498.95395	1611.76880	-457.10294	331.29529	1582.45935	-422.42075	110.82246	1520.82117	-406.29410	86.94999	1646.59631	-547.05646	44.97120	1249.11597	-502.26669	673.04126	1290.53064	-479.31396	463.20508	1279.51917	-423.82736	282.65271	1317.47839	-386.93719	92.11302	1370.13489	-344.48370	39.09132	1311.46338	-536.99933	34.52464	1405.97559	-433.59927	1804.11353	-3360.11060	2845.10791	1033.84314			 
184	1.830	1495.00867	-556.31116	1754.74829	1352.71863	-552.66229	1730.55469	1511.64844	-437.24240	1664.00549	1371.03247	-421.39111	1637.76465	1429.11548	-389.55627	1527.90552	1405.15784	-339.03091	1252.89990	1457.72839	-526.79749	1460.32092	1451.24561	-579.56250	1288.63940	1348.57129	-344.03061	1357.47791	1616.09473	-433.88239	1499.09753	1695.40198	-391.91595	1302.82568	1710.31128	-377.22141	1163.10083	1729.09949	-380.36774	1031.52490	1710.83301	-437.21805	903.57806	1736.76135	-386.94778	908.47211	1744.89661	-404.02103	844.13971	1256.15491	-494.80316	1501.39514	1158.78821	-486.12918	1313.86975	1138.35803	-509.52118	1168.87500	1121.23254	-550.99115	1056.37988	1141.96130	-611.78693	936.28516	1105.23096	-569.02216	928.21680	1104.76453	-614.34802	871.06506	1568.98438	-548.27216	996.07843	1317.37988	-586.99823	980.53973	1461.38354	-353.30630	1034.10706	1347.13086	-366.02948	1034.23633	1647.58691	-528.95441	691.46155	1634.18774	-557.21204	498.34781	1614.87671	-476.59818	325.82693	1589.25623	-452.98196	103.19433	1527.90552	-437.72110	77.94825	1653.72668	-580.92529	43.85825	1249.96350	-507.23456	672.44183	1290.86658	-482.85092	462.79135	1279.98486	-425.70142	282.68878	1317.64783	-387.48352	92.33381	1370.48083	-344.60214	39.32598	1311.35559	-536.99603	34.49217	1407.67029	-442.87238	1803.83887	-3360.30347	2845.37256	1033.69189			 
185	1.840	1497.00195	-565.33551	1753.89758	1354.56604	-561.95380	1730.07471	1513.18506	-445.90350	1663.28870	1372.37354	-430.47751	1637.54980	1429.97266	-398.41910	1527.29419	1406.03699	-347.63382	1252.41248	1458.77808	-535.65741	1459.71545	1451.69836	-588.40210	1288.02161	1349.09424	-352.86877	1357.11902	1616.85828	-441.99823	1497.87195	1695.64160	-397.59546	1302.10718	1710.91296	-381.33154	1162.75281	1729.71326	-382.66000	1031.05566	1713.18433	-438.23471	902.43567	1738.03455	-387.53030	908.10199	1746.76758	-403.91660	843.50189	1257.23901	-504.07852	1501.37500	1159.30493	-498.05420	1314.09033	1138.66956	-522.72290	1169.22791	1121.57446	-565.66089	1057.12488	1142.96179	-627.40656	937.84314	1105.67688	-584.85791	929.24567	1105.66895	-630.58221	872.54529	1569.67212	-557.54529	995.10986	1317.58887	-594.93793	979.13098	1462.85254	-361.84238	1033.58093	1348.53040	-374.09390	1033.77893	1648.49939	-539.20264	691.53699	1634.61938	-568.71283	497.50113	1618.10034	-496.04459	320.55328	1596.24084	-483.63589	96.24072	1535.36609	-469.29010	69.87791	1661.06787	-614.51306	43.51985	1250.72083	-512.35938	671.63501	1291.69336	-485.76077	462.15860	1280.46448	-427.51230	282.64209	1318.01196	-387.70383	92.55108	1370.63733	-344.61911	39.48347	1311.24719	-537.04071	34.45972	1409.62122	-452.24915	1803.40088	-3360.21143	2845.10742	1034.00562			 
186	1.850	1499.04187	-574.37335	1752.87683	1356.55042	-571.26874	1729.53418	1514.54626	-454.90707	1662.39050	1373.76196	-439.55017	1637.16235	1430.91846	-407.46069	1526.67834	1407.13391	-356.16483	1251.84167	1459.92004	-544.53107	1458.95715	1452.23975	-597.21564	1287.23840	1349.81653	-361.66971	1356.86121	1617.76172	-450.20441	1496.53418	1695.78088	-403.63226	1301.15759	1711.36755	-385.69101	1162.27307	1730.63293	-385.18814	1030.62402	1715.57373	-439.39603	901.26923	1739.25806	-388.24289	907.59113	1748.85168	-403.47131	843.13452	1258.43274	-513.30524	1501.25818	1160.03442	-509.06030	1313.86707	1139.19360	-535.93561	1169.51489	1122.39587	-580.09491	1057.86377	1143.93481	-642.76538	938.92853	1106.32385	-600.65955	930.18793	1106.49890	-647.03314	873.89825	1570.85693	-567.61066	994.32599	1318.04968	-602.73444	977.52502	1464.43823	-370.40994	1032.84473	1350.11975	-382.31885	1033.29431	1649.34314	-549.17206	691.21179	1635.10876	-579.91479	496.33005	1621.55664	-515.53705	315.34933	1603.99158	-513.79443	90.60006	1543.09070	-500.67050	62.68480	1668.52856	-647.85461	44.38660	1251.56201	-517.45868	671.10297	1292.39453	-489.20883	461.84308	1280.96521	-429.32602	282.69092	1318.24976	-388.15323	92.71022	1370.92334	-344.66733	39.64872	1311.10352	-537.04956	34.40648	1411.49890	-461.55316	1802.74744	-3360.21704	2845.07861	1033.80811			 
187	1.860	1501.12976	-583.37244	1751.67639	1358.56775	-580.49353	1728.83411	1516.12671	-463.76154	1661.36926	1375.24927	-448.64169	1636.61450	1431.96680	-416.26437	1525.75793	1408.39111	-364.71152	1251.09021	1461.17969	-553.43616	1458.06128	1452.95496	-606.05475	1286.32129	1350.67505	-370.59494	1356.18408	1618.81445	-458.46674	1495.14734	1696.31140	-409.55817	1300.40869	1711.49426	-390.50790	1161.51111	1731.45239	-387.89758	1030.13135	1717.69751	-440.90695	899.89758	1740.44849	-389.16125	907.18854	1750.86475	-403.53122	842.68219	1259.73022	-522.64508	1500.89941	1160.74927	-520.88489	1313.75342	1139.84949	-549.17554	1169.67981	1123.27368	-594.51617	1058.49634	1145.13159	-658.40485	940.35034	1106.96741	-616.43878	931.12366	1107.52161	-663.41943	875.36627	1571.92175	-576.65179	992.83130	1318.80688	-610.47058	976.07465	1466.07202	-379.10980	1031.82373	1351.71497	-390.48669	1032.61804	1650.25598	-558.89111	690.47919	1635.78955	-590.78766	494.92819	1625.47205	-535.00720	310.45084	1611.40320	-544.29041	85.48135	1551.04395	-531.81653	56.39463	1675.86475	-680.86292	46.36713	1252.45239	-522.59760	670.38873	1293.03064	-492.53128	461.32455	1281.45862	-431.03934	282.77359	1318.44348	-388.50494	92.91412	1370.93677	-344.76993	40.26323	1310.99646	-537.07733	34.37009	1413.58789	-470.83289	1802.05127	-3360.24927	2845.24414	1033.80994			 
188	1.870	1503.28467	-592.40106	1750.37170	1360.68811	-589.71375	1727.96814	1517.94812	-472.52374	1660.17615	1376.86853	-457.69888	1635.93689	1433.23938	-425.20377	1524.77832	1409.85205	-373.25772	1250.21021	1462.51819	-562.36273	1456.97205	1453.85205	-614.99536	1285.25891	1351.51770	-379.54028	1355.43896	1619.99023	-466.86038	1493.67834	1696.67957	-416.05237	1299.29810	1711.99255	-395.33832	1160.87988	1732.15723	-390.81235	1029.61487	1720.35083	-442.33035	898.98407	1741.66516	-390.30780	906.67798	1752.74292	-403.75061	842.11224	1261.17798	-532.03204	1500.48865	1161.77795	-532.29645	1313.42126	1140.94543	-561.69641	1169.58228	1124.00964	-609.22589	1059.10193	1146.35901	-673.31567	941.30237	1107.87891	-632.09003	931.90686	1108.58594	-679.60767	876.57013	1573.29871	-585.94324	991.35559	1319.64197	-618.52759	974.96075	1467.90735	-387.88608	1030.58289	1353.39307	-398.53867	1031.71179	1651.09302	-568.37286	689.47589	1636.43188	-601.68219	493.51947	1629.72083	-554.25165	306.05759	1618.95422	-574.48004	81.35391	1559.15186	-562.62347	51.12798	1682.79089	-713.40112	49.39938	1253.30762	-527.90692	669.63550	1293.83655	-495.60968	460.63766	1281.87915	-432.61185	282.80353	1318.78210	-388.75989	93.16995	1371.45984	-344.89374	40.39670	1310.88501	-537.08148	34.31412	1415.88586	-480.02228	1801.24670	-3360.28809	2845.17554	1033.72327			 
